PathFileType	4	(X/Y/Z)	C:\Users\Basilio\Documents\Thesis Gigler\squatting_fais\c3dfiles\073\SJ_pre4\markers_experimental.trc
DataRate	CameraRate	NumFrames	NumMarkers	Units	OrigDataRate	OrigDataStartFrame	OrigNumFrames
200.000000	200.000000	4	61	mm	200.000000	974	1299
Frame#	Time	FHD			LBHD			RBHD			C7			T10			CLAV			LSHO			LUUPA			LMUPA			LDUPA			LLEP			LMEP			LRAD			LUL			LRFIN			RSHO			RUPA1			RMUPA			RDUPA			RLEP			RMEP			RRAD			RUL			RUFIN			LASI			RASI			USACR			LSACR			RSACR			LTHI1			LTHI2			LTHI3			LTHI4			LLFC			LMFC			LTIB1			LTIB2			LTIB3			LTIB4			LLMAL			LMMAL			LHEE			LMT1			LMT2			LMT5			RTHI			RTHI2			RTHI3			RTHI4			RLFC			RMFC			RTIB1			RTIB2			RTIB3			RTIB4			RLMAL			RMMAL			RHEE			RMT1			RMT2			RMT5			
		X1	Y1	Z1	X2	Y2	Z2	X3	Y3	Z3	X4	Y4	Z4	X5	Y5	Z5	X6	Y6	Z6	X7	Y7	Z7	X8	Y8	Z8	X9	Y9	Z9	X10	Y10	Z10	X11	Y11	Z11	X12	Y12	Z12	X13	Y13	Z13	X14	Y14	Z14	X15	Y15	Z15	X16	Y16	Z16	X17	Y17	Z17	X18	Y18	Z18	X19	Y19	Z19	X20	Y20	Z20	X21	Y21	Z21	X22	Y22	Z22	X23	Y23	Z23	X24	Y24	Z24	X25	Y25	Z25	X26	Y26	Z26	X27	Y27	Z27	X28	Y28	Z28	X29	Y29	Z29	X30	Y30	Z30	X31	Y31	Z31	X32	Y32	Z32	X33	Y33	Z33	X34	Y34	Z34	X35	Y35	Z35	X36	Y36	Z36	X37	Y37	Z37	X38	Y38	Z38	X39	Y39	Z39	X40	Y40	Z40	X41	Y41	Z41	X42	Y42	Z42	X43	Y43	Z43	X44	Y44	Z44	X45	Y45	Z45	X46	Y46	Z46	X47	Y47	Z47	X48	Y48	Z48	X49	Y49	Z49	X50	Y50	Z50	X51	Y51	Z51	X52	Y52	Z52	X53	Y53	Z53	X54	Y54	Z54	X55	Y55	Z55	X56	Y56	Z56	X57	Y57	Z57	X58	Y58	Z58	X59	Y59	Z59	X60	Y60	Z60	X61	Y61	Z61	

975	4.87	-113.2919235229492	1667.763671875	-918.6941528320315	-242.0052490234376	1616.902954101563	-938.9583129882815	-258.0062866210938	1595.025390625	-806.2098388671877	-281.5847778320313	1514.485473632813	-869.449890136719	-383.8735656738282	1189.531372070313	-880.2791748046877	-160.6128692626953	1420.884765625	-879.9927368164065	-206.2491912841797	1462.107421875	-1047.637329101563	-303.7884826660157	1395.478637695313	-1159.974243164063	-289.0460510253907	1347.943603515625	-1169.7685546875	-341.1542968750001	1353.619262695313	-1202.617431640625	-387.770233154297	1272.064819335938	-1253.948608398438	-457.9133605957032	1263.8818359375	-1206.7666015625	-332.5027465820313	1046.368774414063	-1117.03955078125	-304.0302429199219	1028.282958984375	-1182.627319335938	-291.8970947265626	1021.386535644531	-1073.854370117188	-171.1748046875	1440.982543945313	-708.2626953125001	-273.9375000000001	1370.094360351563	-574.4168090820314	-265.3429260253907	1321.587036132813	-569.7355346679689	-315.1653442382813	1328.496459960938	-536.8198852539064	-353.3020019531251	1252.008666992188	-496.5720214843751	-426.1430664062501	1251.939453125	-556.7450561523439	-347.2068176269532	1028.477294921875	-651.0001831054689	-306.7481079101563	1004.877502441406	-591.3947753906251	-289.7803955078126	1011.111999511719	-696.6050415039064	-241.5867462158204	1029.678955078125	-1022.505615234375	-231.5911102294922	1003.348266601563	-772.8088378906252	-411.0787353515626	1080.947998046875	-878.1238403320315	-425.915496826172	1055.035400390625	-907.2805175781252	-426.5616149902345	1049.14453125	-851.4268188476565	-276.3016967773438	708.2348632812501	-1122.758666992188	-233.4941558837891	634.5906982421876	-1125.168701171875	-188.4686431884766	638.7310180664064	-1101.533203125	-255.8130340576172	580.2758789062501	-1120.769287109375	-252.2439727783204	523.3338012695314	-1132.513305664063	-239.8341064453126	498.1037597656251	-999.9305419921877	-231.3710327148438	316.4617309570313	-1113.512084960938	-299.6992797851563	294.5348205566407	-1162.93798828125	-261.8776550292969	277.8930969238282	-1149.600708007813	-273.6305847167969	197.5299835205079	-1123.783081054688	-360.8397521972657	95.31129455566408	-1157.570678710938	-338.3119812011719	107.4370880126953	-1071.864868164063	-417.7107849121095	56.03139495849611	-1114.577758789063	-187.1677703857422	54.78445434570314	-1107.33251953125	-192.4421081542969	54.28290176391603	-1145.267211914063	-233.5764617919922	37.5924186706543	-1196.966796875	-298.8442077636719	765.6915283203126	-691.4083251953126	-254.8855285644532	715.9039916992189	-686.1800537109376	-222.1134796142579	721.1364135742189	-691.1377563476564	-270.0675048828126	634.1606445312501	-700.8243408203126	-235.0884857177735	494.6381835937501	-700.0119628906251	-231.1666564941407	471.250946044922	-827.2091064453127	-233.1693267822266	320.9671630859376	-771.3545532226565	-275.0507202148438	255.0963745117188	-695.4155273437501	-254.4100952148438	243.9650268554688	-738.0929565429689	-283.8263549804688	202.1432647705079	-765.0025024414064	-364.3392028808594	91.71994781494142	-696.6790161132814	-351.8690185546876	103.6649322509766	-786.5607910156252	-435.5096130371095	50.57003784179689	-747.8054199218751	-204.0918121337891	54.91001129150392	-741.0748291015626	-207.9902648925782	53.75358963012697	-700.2960815429689	-251.7639923095704	34.8713493347168	-653.4604492187501	
976	4.875	-113.6785736083985	1670.5478515625	-918.231384277344	-242.9769134521485	1620.043212890625	-938.5603027343752	-258.9049987792969	1598.25244140625	-805.7232055664065	-282.6216430664063	1517.255126953125	-869.024353027344	-383.9009399414063	1192.4423828125	-880.3305664062502	-161.6853637695313	1424.257202148438	-879.7943115234377	-207.356674194336	1465.742309570313	-1047.070190429688	-304.2161254882813	1399.2373046875	-1159.568481445313	-289.3221740722657	1351.745849609375	-1169.266235351563	-341.5572814941407	1357.41748046875	-1202.44921875	-388.1910705566407	1275.655395507813	-1253.981811523438	-458.324676513672	1267.579467773438	-1206.759521484375	-332.3478393554688	1049.925903320313	-1117.047973632813	-304.0644836425782	1031.800537109375	-1182.60498046875	-291.8031616210938	1025.221801757813	-1073.86181640625	-172.2237396240235	1444.37939453125	-708.1527709960939	-274.4899597167969	1373.311889648438	-574.5840454101564	-265.6818542480469	1324.99951171875	-569.5084838867189	-315.7494201660157	1331.760009765625	-536.7440795898439	-353.7868347167969	1255.082885742188	-496.4491271972657	-426.6385192871095	1254.880126953125	-556.6647338867189	-347.0030822753907	1031.542846679688	-651.1012573242189	-306.7407836914063	1007.892272949219	-591.4796142578126	-289.4287414550782	1014.422485351563	-696.6685180664064	-242.4401092529297	1032.3447265625	-1020.868408203125	-230.9409179687501	1006.891174316406	-773.2119750976565	-410.5343322753907	1084.235473632813	-878.3056640625002	-425.245330810547	1058.314086914063	-907.5142211914065	-425.7445373535157	1052.439086914063	-851.5822753906252	-278.5162353515626	710.5593261718751	-1122.632934570313	-236.3211364746094	636.4180908203126	-1123.855712890625	-191.9932098388672	639.9067993164064	-1100.473510742188	-259.4830322265626	582.1670532226564	-1120.3193359375	-256.6452331542969	525.1762084960939	-1131.759155273438	-244.6710815429688	499.6656494140626	-999.0473632812502	-233.8180084228516	318.3745727539063	-1113.435668945313	-302.1228637695313	295.7774353027344	-1162.511596679688	-264.3861999511719	279.6342773437501	-1149.61767578125	-274.5569763183594	198.9752960205079	-1123.763427734375	-360.8216857910157	95.94541168212892	-1157.612548828125	-338.1920166015626	108.0105285644532	-1072.012451171875	-417.5649719238282	56.79171752929689	-1114.747436523438	-187.2394409179688	54.82436370849611	-1107.29345703125	-192.2805633544922	54.3155860900879	-1145.177001953125	-233.5133056640626	37.68217468261719	-1196.872802734375	-299.8940124511719	768.6800537109377	-691.2950439453126	-256.6413879394532	718.5219726562501	-686.1552734375001	-223.7871704101563	723.3997192382814	-690.8965454101564	-272.8565368652344	636.7781982421876	-700.4902343750001	-239.1825866699219	496.5672607421876	-699.6984863281251	-235.1056213378907	472.891082763672	-826.9177246093752	-235.3716888427735	322.6303100585938	-770.891540527344	-277.0177307128907	256.6313476562501	-695.2336425781251	-255.9071197509766	245.4344635009766	-737.6583862304689	-284.8013610839844	203.4033660888672	-764.7864379882814	-364.4865722656251	92.06774139404298	-696.9971923828126	-351.7985229492188	104.2247085571289	-786.7297973632815	-435.3475646972657	50.92789459228517	-748.3596191406251	-203.9777221679688	54.96265029907228	-741.1802978515626	-207.9989166259766	53.83375930786134	-700.3517456054689	-251.8443450927735	34.87012481689454	-653.6490478515626	
977	4.88	-113.9014053344727	1673.222778320313	-917.730407714844	-243.7530364990235	1623.055541992188	-938.1427001953127	-259.6274414062501	1600.994018554688	-805.2212524414065	-283.7235412597657	1519.851806640625	-868.6948242187502	-383.9075927734376	1195.150512695313	-880.3521728515627	-162.7495727539063	1427.461059570313	-879.4423828125002	-208.4308624267579	1469.071655273438	-1046.5126953125	-304.5977478027344	1402.720947265625	-1159.213012695313	-289.7458496093751	1355.296630859375	-1168.900756835938	-341.6847229003907	1360.883666992188	-1202.22509765625	-388.6256408691407	1278.989990234375	-1253.934692382813	-458.7863769531251	1270.957763671875	-1206.811645507813	-332.1002197265626	1053.299438476563	-1117.067626953125	-304.1248474121094	1035.136840820313	-1182.720947265625	-291.1715698242188	1028.6220703125	-1073.91796875	-173.2514343261719	1447.522705078125	-708.0693359375001	-275.1682739257813	1376.428344726563	-574.4391479492189	-266.2364501953126	1328.16552734375	-569.3731079101564	-316.3996582031251	1334.72119140625	-536.7708129882814	-354.2978820800782	1257.930786132813	-496.4472656250001	-427.1137695312501	1257.502563476563	-556.6008300781251	-346.8978576660157	1034.423095703125	-651.2216796875001	-306.6478576660157	1010.644836425781	-591.6406860351564	-289.1172180175782	1017.443603515625	-696.8133544921876	-240.5372619628907	1036.342529296875	-1022.129821777344	-230.2856597900391	1010.281433105469	-773.449890136719	-409.9834899902345	1087.352416992188	-878.4116821289065	-424.8340148925782	1061.463012695313	-907.6262207031252	-425.2634277343751	1055.668334960938	-851.656433105469	-280.8776855468751	712.5457153320314	-1122.444213867188	-239.2714843750001	638.1077270507814	-1123.256958007813	-195.2155303955079	641.1840209960939	-1099.442016601563	-263.3691101074219	583.9988403320314	-1119.766235351563	-261.0364685058594	526.9572753906251	-1131.215942382813	-249.364974975586	501.0645751953126	-998.2266845703127	-236.1796112060547	320.3186035156251	-1113.293090820313	-304.2095947265626	296.9924011230469	-1162.339965820313	-265.8966674804688	281.2243652343751	-1149.198974609375	-275.6487121582032	200.3331451416016	-1123.81640625	-360.7820129394532	96.7055358886719	-1157.743896484375	-338.1445922851563	108.6138610839844	-1072.26123046875	-417.4392395019532	57.63698196411134	-1114.877563476563	-187.3713531494141	54.86967849731447	-1107.205200195313	-192.0809326171876	54.3102493286133	-1145.065673828125	-233.4414062500001	37.79222106933594	-1196.827270507813	-301.0246276855469	771.517761230469	-691.0450439453126	-258.3623046875001	720.7432250976564	-685.9902343750001	-225.4798583984376	725.3262329101564	-690.7432250976564	-275.5226135253907	639.3205566406251	-700.1377563476564	-243.2287902832032	498.338836669922	-699.3227539062501	-238.5716094970704	474.5663452148439	-826.6506958007815	-237.497299194336	324.3589172363282	-770.4981689453127	-278.9117431640626	257.8890380859376	-695.1320800781251	-257.5574340820313	246.8884887695313	-737.4839477539064	-285.6236572265626	204.4924011230469	-764.6009521484376	-364.6519165039063	92.42163085937501	-697.3372802734376	-351.8111572265626	104.7481689453125	-786.9268188476565	-435.2173156738282	51.22230911254884	-749.0341186523439	-203.8757629394532	54.99893188476564	-741.2590332031251	-207.9417419433594	53.86286926269533	-700.4554443359376	-251.9006652832032	34.93040084838868	-653.8331298828126	
978	4.885	-114.5251617431641	1675.66650390625	-917.1202392578127	-244.4070892333985	1625.8603515625	-937.794860839844	-260.5550842285157	1603.661254882813	-804.7650146484377	-284.9241943359376	1522.359741210938	-868.325378417969	-383.8500366210938	1197.621826171875	-880.4619140625002	-163.7059173583985	1430.472778320313	-879.1687622070315	-209.5402984619141	1472.142456054688	-1046.122802734375	-305.0859680175782	1405.909545898438	-1158.973266601563	-290.1815185546876	1358.56201171875	-1168.564208984375	-342.0090637207032	1364.197631835938	-1202.115966796875	-388.9761657714845	1282.106811523438	-1253.766479492188	-459.156951904297	1274.082153320313	-1206.896484375	-331.9549560546876	1056.381591796875	-1117.096923828125	-304.0670776367188	1038.303100585938	-1182.78515625	-290.9961853027344	1032.009399414063	-1074.00439453125	-174.2996063232422	1450.462890625	-707.9898681640626	-275.8478698730469	1379.267211914063	-574.3983764648439	-266.7409362792969	1331.085571289063	-569.2073974609376	-317.0738830566407	1337.508056640625	-536.7711181640626	-354.8759765625001	1260.556762695313	-496.3701477050782	-427.6778869628907	1259.881713867188	-556.6019287109376	-346.7352294921876	1037.000244140625	-651.4395141601564	-306.5447387695313	1013.174987792969	-591.6080932617189	-288.3792419433594	1020.176452636719	-696.7029418945314	-241.0108184814454	1038.649658203125	-1020.319519042969	-229.5674743652344	1013.524536132813	-773.7745361328127	-409.2242126464845	1090.259033203125	-878.4924316406252	-423.767059326172	1064.373901367188	-907.7966918945315	-424.5850524902345	1058.541259765625	-851.8862304687502	-282.8879394531251	714.6393432617189	-1122.281372070313	-242.3476257324219	639.6570434570314	-1122.929077148438	-198.3815002441407	642.1817626953126	-1098.351440429688	-266.8671264648438	585.8015747070314	-1119.308227539063	-265.2481384277344	528.6063232421876	-1130.419799804688	-253.9022827148438	502.3764648437501	-997.278259277344	-238.5276947021485	322.1088562011719	-1113.18115234375	-306.5256958007813	298.3637390136719	-1162.104858398438	-268.2887573242188	282.6353759765626	-1149.264770507813	-276.6343994140626	201.8399658203126	-1123.9814453125	-360.8019104003907	97.44421386718753	-1157.925903320313	-338.1632385253907	109.2622833251953	-1072.420166015625	-417.2929992675782	58.38962554931642	-1114.99462890625	-187.3593139648438	54.86996459960939	-1107.177856445313	-192.018539428711	54.27080535888673	-1145.019165039063	-233.3680572509766	37.81139755249024	-1196.721801757813	-302.0439147949219	774.1856079101565	-690.7789916992189	-259.9407348632813	723.0266723632814	-685.5714111328126	-227.0303039550782	727.1836547851564	-690.7454223632814	-278.1876220703126	641.5990600585939	-699.7677612304689	-247.2013092041016	500.049285888672	-699.2091674804689	-242.3708496093751	476.0264587402345	-826.375671386719	-239.6108551025391	325.9413757324219	-770.0032958984377	-280.6400451660157	259.0842895507813	-694.7815551757814	-258.9229736328126	248.2765808105469	-736.9334716796876	-286.4871826171876	205.4848327636719	-764.4989624023439	-364.8349914550782	92.76747131347658	-697.6842651367189	-351.7304382324219	105.3028411865235	-787.1301269531252	-435.0797729492189	51.59587478637697	-749.6147460937501	-203.8071594238282	55.0205764770508	-741.3372802734376	-207.9283752441407	53.9320411682129	-700.5219116210939	-251.9568176269532	34.98820877075196	-654.0438232421876	
